<svg class="svg-icon" style="width: 1em;height: 1em;vertical-align: middle;fill: currentColor;overflow: hidden;" viewBox="0 0 1024 1024" version="1.1" xmlns="http://www.w3.org/2000/svg"><path d="M704 640h-85.333c-12.8 0-21.334-8.533-21.334-21.333s8.534-21.334 21.334-21.334H704c12.8 0 21.333 8.534 21.333 21.334S716.8 640 704 640z m0-256h-85.333c-12.8 0-21.334-8.533-21.334-21.333s8.534-21.334 21.334-21.334H704c12.8 0 21.333 8.534 21.333 21.334S716.8 384 704 384z m170.667 170.667H448c-12.8 0-21.333-8.534-21.333-21.334S435.2 512 448 512h426.667c12.8 0 21.333 8.533 21.333 21.333s-8.533 21.334-21.333 21.334zM149.333 896c-12.8 0-21.333-8.533-21.333-21.333V277.333c0-12.8 8.533-21.333 21.333-21.333s21.334 8.533 21.334 21.333v597.334c0 12.8-8.534 21.333-21.334 21.333z m725.334 0c-12.8 0-21.334-8.533-21.334-21.333V277.333c0-12.8 8.534-21.333 21.334-21.333S896 264.533 896 277.333v597.334c0 12.8-8.533 21.333-21.333 21.333zM448 896c-12.8 0-21.333-8.533-21.333-21.333v-576c0-12.8 8.533-21.334 21.333-21.334s21.333 8.534 21.333 21.334v576c0 12.8-8.533 21.333-21.333 21.333z m426.667-85.333H149.333c-12.8 0-21.333-8.534-21.333-21.334S136.533 768 149.333 768h725.334c12.8 0 21.333 8.533 21.333 21.333s-8.533 21.334-21.333 21.334z m21.333-512H128c-46.933 0-85.333-38.4-85.333-85.334S81.067 128 128 128h768c46.933 0 85.333 38.4 85.333 85.333s-38.4 85.334-85.333 85.334z m-768-128c-23.467 0-42.667 19.2-42.667 42.666S104.533 256 128 256h768c23.467 0 42.667-19.2 42.667-42.667s-19.2-42.666-42.667-42.666H128z" fill ='#5ea9ef'/></svg>