<svg class="svg-icon" style="width: 1em; height: 1em;vertical-align: middle;fill: currentColor;overflow: hidden;" viewBox="0 0 1024 1024" version="1.1" xmlns="http://www.w3.org/2000/svg"><path d="M476.14 418.26a10.92 10.92 0 0 1-10.25-7.26l-6.27-17.53c-7-20.13 3.11-31.07 8.54-36.95a24.82 24.82 0 0 0 2.4-2.84v-7.18a3 3 0 0 1 3-3h31.22a3 3 0 0 1 3 3v7.18a24.82 24.82 0 0 0 2.4 2.84c5.43 5.88 15.52 16.82 8.55 36.93L512.45 411a10.92 10.92 0 0 1-10.26 7.22z" fill="#5ea9ef" /><path d="M504.78 346.54V354c0 4.31 19.76 13.57 11.11 38.5l-6.27 17.5a7.89 7.89 0 0 1-7.43 5.22h-26.05a7.89 7.89 0 0 1-7.42-5.22l-6.27-17.53c-8.66-24.93 11.11-34.19 11.11-38.5v-7.46h31.22m0-6h-31.22a6 6 0 0 0-6 6v6.2c-0.43 0.51-1.09 1.22-1.61 1.78-5.43 5.89-16.74 18.15-9.17 40l6.27 17.53a13.92 13.92 0 0 0 13.07 9.2h26.05a13.92 13.92 0 0 0 13.08-9.2l6.27-17.53c7.57-21.8-3.74-34.06-9.17-40-0.52-0.56-1.18-1.27-1.61-1.78v-6.2a6 6 0 0 0-6-6z" fill="#5ea9ef" /><path d="M504.78 353v-6.42h-5.23c0.45 1.42 2.71 3.48 5.23 6.42zM510.24 361.11c2.65 5.68 3.84 13.24 0.32 23.39l-6.27 17.5a7.9 7.9 0 0 1-7.43 5.22h-26.05a7.8 7.8 0 0 1-3.36-0.76l1.27 3.54a7.89 7.89 0 0 0 7.42 5.22h26.05a7.89 7.89 0 0 0 7.43-5.22l6.27-17.53c5.53-15.9-0.54-25.42-5.65-31.36z" fill="#5ea9ef" /><path d="M469.13 347.22a4.91 4.91 0 1 1 0-9.82h40.08a4.91 4.91 0 0 1 0 9.82z" fill="#5ea9ef" /><path d="M509.21 340.4a1.91 1.91 0 0 1 0 3.82h-40.08a1.91 1.91 0 1 1 0-3.82h40.08m0-6h-40.08a7.91 7.91 0 1 0 0 15.82h40.08a7.91 7.91 0 0 0 0-15.82z" fill="#5ea9ef" /><path d="M281.92 572.05l133.67 0 0 12.75-133.67 0 0-12.75Z" fill="#3F454A" /><path d="M412.59 575.05v6.75H284.92v-6.75h127.67m0-6H284.92a6 6 0 0 0-6 6v6.75a6 6 0 0 0 6 6h127.67a6 6 0 0 0 6-6v-6.75a6 6 0 0 0-6-6z" fill="#5ea9ef" /><path d="M284.92 580.8h127.67v1H284.92z" fill="#5ea9ef" /><path d="M439 707.85a8.19 8.19 0 0 1-8.29-6.65l-30.32-186.56a6 6 0 0 1 5-6.89l11.47-1.75a5.46 5.46 0 0 1 0.9-0.07 6 6 0 0 1 5.94 5.15l26.78 187.42a7.82 7.82 0 0 1-1.8 6.11 9 9 0 0 1-6.59 3.13l-2.79 0.09z" fill="#5ea9ef" /><path d="M417.76 512l26.78 187.41c0.17 1.22-1.08 2.35-2.65 2.4l-2.79 0.09h-0.1a2.23 2.23 0 0 1-2.37-1.62l-30.3-186.55 11.43-1.73m0-12a12.11 12.11 0 0 0-1.8 0.13l-11.44 1.74a12 12 0 0 0-10 13.78l30.31 186.56A14.16 14.16 0 0 0 439 713.85h0.5l2.8-0.09a15 15 0 0 0 11-5.26 13.85 13.85 0 0 0 3.15-10.77l-26.81-187.48A12 12 0 0 0 417.76 500z" fill="#5ea9ef" /><path d="M417.76 512v0.22l-10 1.51 30.31 186.55a2.12 2.12 0 0 0 1.93 1.59h-1a2.26 2.26 0 0 1-2.48-1.62l-30.3-186.55z" fill="#5ea9ef" /><path d="M258.22 707.85l-2.8-0.09a9 9 0 0 1-6.59-3.13 7.83 7.83 0 0 1-1.8-6.09l26.78-187.44a6 6 0 0 1 5.94-5.15 5.46 5.46 0 0 1 0.9 0.07l11.44 1.73a6 6 0 0 1 5 6.89l-30.28 186.55a8.18 8.18 0 0 1-8.29 6.66z" fill="#5ea9ef" /><path d="M279.75 512l11.44 1.73-30.3 186.55a2.23 2.23 0 0 1-2.37 1.62h-0.11l-2.79-0.09c-1.57 0-2.82-1.18-2.65-2.4L279.75 512m0-12a12 12 0 0 0-11.88 10.3l-26.78 187.37a13.83 13.83 0 0 0 3.15 10.82 15 15 0 0 0 11 5.26l2.8 0.09h0.5a14.15 14.15 0 0 0 14.21-11.68L303 515.6a12 12 0 0 0-10-13.78l-11.44-1.74a12.11 12.11 0 0 0-1.8-0.13z" fill="#5ea9ef" /><path d="M279.75 512v0.22l10 1.51-30.37 186.5a2.12 2.12 0 0 1-1.93 1.59h1a2.26 2.26 0 0 0 2.48-1.62l30.3-186.55z" fill="#5ea9ef" /><path d="M267.3 523.8c-5.53 0-10-4.14-10-9.22v-5.46c0-5.08 4.51-9.21 10-9.21h39.75a5.94 5.94 0 0 1 1.77 0.27l9.84 3h60.8l9.13-3a5.9 5.9 0 0 1 1.87-0.3h39.75c5.53 0 10 4.13 10 9.21v5.46c0 5.08-4.51 9.22-10 9.22z" fill="#5ea9ef" /><path d="M430.21 505.91c2.23 0 4 1.44 4 3.21v5.46c0 1.78-1.81 3.22-4 3.22H267.3c-2.23 0-4-1.44-4-3.22v-5.46c0-1.77 1.81-3.21 4-3.21h39.75l10.71 3.29h62.66l10-3.29h39.75m0-12h-39.71a11.9 11.9 0 0 0-3.74 0.6l-8.21 2.69h-58.95l-9-2.76a12 12 0 0 0-3.53-0.53H267.3c-8.84 0-16 6.83-16 15.21v5.46c0 8.39 7.2 15.22 16 15.22h162.91c8.84 0 16-6.83 16-15.22v-5.46c0-8.38-7.2-15.21-16-15.21z" fill="#5ea9ef" /><path d="M430.21 516.71H267.3c-2.23 0-4-1.44-4-3.21v1.08c0 1.78 1.81 3.22 4 3.22h162.91c2.23 0 4-1.44 4-3.22v-1.08c0.04 1.77-1.77 3.21-4 3.21z" fill="#5ea9ef" /><path d="M348.76 502.48a3 3 0 0 1-3-3v-124a3 3 0 0 1 6 0v124a3 3 0 0 1-3 3zM362 502.4h-0.15a3 3 0 0 1-2.84-3.15l6.11-123.81a3 3 0 0 1 6 0.29L365 499.55a3 3 0 0 1-3 2.85zM375.63 502.05a2.19 2.19 0 0 1-0.36 0 3 3 0 0 1-2.62-3.33l14.59-123.1a3 3 0 1 1 6 0.71L378.6 499.4a3 3 0 0 1-2.97 2.65zM389.57 501.41a3.41 3.41 0 0 1-0.55-0.05 3 3 0 0 1-2.4-3.51L409.52 376a3 3 0 0 1 5.9 1.11L392.52 499a3 3 0 0 1-2.95 2.41zM335.48 502.4a3 3 0 0 1-3-2.85l-6.11-123.82a3 3 0 1 1 6-0.29l6.12 123.81a3 3 0 0 1-2.85 3.15zM321.88 502.05a3 3 0 0 1-3-2.65l-14.6-123.1a3 3 0 1 1 6-0.71l14.59 123.1a3 3 0 0 1-2.62 3.33 2.19 2.19 0 0 1-0.37 0.03zM307.94 501.41A3 3 0 0 1 305 499l-22.9-121.83A3 3 0 0 1 288 376l22.9 121.83a3 3 0 0 1-2.39 3.51 3.64 3.64 0 0 1-0.57 0.07z" fill="#5ea9ef" /><path d="M266.76 364.78l164 0 0 36-164 0 0-36Z" fill="#5ea9ef" /><path d="M417.29 370.78a7.47 7.47 0 0 1 7.47 7.47v9.06a7.48 7.48 0 0 1-7.47 7.47H280.22a7.47 7.47 0 0 1-7.46-7.47v-9.06a7.46 7.46 0 0 1 7.46-7.47h137.07m0-12H280.22a19.48 19.48 0 0 0-19.46 19.47v9.06a19.49 19.49 0 0 0 19.46 19.47h137.07a19.5 19.5 0 0 0 19.47-19.47v-9.06a19.49 19.49 0 0 0-19.47-19.47z" fill="#5ea9ef" /><path d="M417.29 392.78H280.22a7.47 7.47 0 0 1-7.46-7.47v2a7.47 7.47 0 0 0 7.46 7.47h137.07a7.48 7.48 0 0 0 7.47-7.47v-2a7.48 7.48 0 0 1-7.47 7.47z" fill="#5ea9ef" /><path d="M561.92 572.05l133.67 0 0 12.75-133.67 0 0-12.75Z" fill="#3F454A" /><path d="M692.59 575.05v6.75H564.92v-6.75h127.67m0-6H564.92a6 6 0 0 0-6 6v6.75a6 6 0 0 0 6 6h127.67a6 6 0 0 0 6-6v-6.75a6 6 0 0 0-6-6z" fill="#5ea9ef" /><path d="M564.92 580.8h127.67v1H564.92z" fill="#5ea9ef" /><path d="M719 707.85a8.19 8.19 0 0 1-8.29-6.65l-30.32-186.56a6 6 0 0 1 5-6.89l11.47-1.75a5.46 5.46 0 0 1 0.9-0.07 6 6 0 0 1 5.94 5.15l26.78 187.42a7.82 7.82 0 0 1-1.8 6.11 9 9 0 0 1-6.59 3.13l-2.79 0.09z" fill="#5ea9ef" /><path d="M697.76 512l26.78 187.41c0.17 1.22-1.08 2.35-2.65 2.4l-2.79 0.09h-0.1a2.23 2.23 0 0 1-2.37-1.62l-30.3-186.55 11.43-1.73m0-12a12.11 12.11 0 0 0-1.8 0.13l-11.44 1.74a12 12 0 0 0-10 13.78l30.31 186.56A14.16 14.16 0 0 0 719 713.85h0.5l2.8-0.09a15 15 0 0 0 11-5.26 13.85 13.85 0 0 0 3.15-10.77l-26.81-187.48A12 12 0 0 0 697.76 500z" fill="#5ea9ef" /><path d="M697.76 512v0.22l-10 1.51 30.31 186.55a2.12 2.12 0 0 0 1.93 1.59h-1a2.26 2.26 0 0 1-2.48-1.62l-30.3-186.55z" fill="#5ea9ef" /><path d="M538.22 707.85l-2.8-0.09a9 9 0 0 1-6.59-3.13 7.83 7.83 0 0 1-1.8-6.09l26.78-187.44a6 6 0 0 1 5.94-5.15 5.46 5.46 0 0 1 0.9 0.07l11.44 1.73a6 6 0 0 1 5 6.89l-30.28 186.55a8.18 8.18 0 0 1-8.29 6.66z" fill="#5ea9ef" /><path d="M559.75 512l11.44 1.73-30.3 186.55a2.23 2.23 0 0 1-2.37 1.62h-0.11l-2.79-0.09c-1.57 0-2.82-1.18-2.65-2.4L559.75 512m0-12a12 12 0 0 0-11.88 10.3l-26.78 187.37a13.83 13.83 0 0 0 3.15 10.82 15 15 0 0 0 11 5.26l2.8 0.09h0.5a14.15 14.15 0 0 0 14.21-11.68L583 515.6a12 12 0 0 0-10-13.78l-11.44-1.74a12.11 12.11 0 0 0-1.8-0.13z" fill="#5ea9ef" /><path d="M559.75 512v0.22l10 1.51-30.37 186.5a2.12 2.12 0 0 1-1.93 1.59h1a2.26 2.26 0 0 0 2.48-1.62l30.3-186.55z" fill="#5ea9ef" /><path d="M547.3 523.8c-5.53 0-10-4.14-10-9.22v-5.46c0-5.08 4.51-9.21 10-9.21h39.75a5.94 5.94 0 0 1 1.77 0.27l9.84 3h60.8l9.13-3a5.9 5.9 0 0 1 1.87-0.3h39.75c5.53 0 10 4.13 10 9.21v5.46c0 5.08-4.51 9.22-10 9.22z" fill="#5ea9ef" /><path d="M710.21 505.91c2.23 0 4 1.44 4 3.21v5.46c0 1.78-1.81 3.22-4 3.22H547.3c-2.23 0-4-1.44-4-3.22v-5.46c0-1.77 1.81-3.21 4-3.21h39.75l10.71 3.29h62.66l10-3.29h39.75m0-12h-39.71a11.9 11.9 0 0 0-3.74 0.6l-8.21 2.69h-59l-9-2.76a12 12 0 0 0-3.53-0.53H547.3c-8.84 0-16 6.83-16 15.21v5.46c0 8.39 7.2 15.22 16 15.22h162.91c8.84 0 16-6.83 16-15.22v-5.46c0-8.38-7.2-15.21-16-15.21z" fill="#5ea9ef" /><path d="M710.21 516.71H547.3c-2.23 0-4-1.44-4-3.21v1.08c0 1.78 1.81 3.22 4 3.22h162.91c2.23 0 4-1.44 4-3.22v-1.08c0.04 1.77-1.77 3.21-4 3.21z" fill="#5ea9ef" /><path d="M628.76 502.48a3 3 0 0 1-3-3v-124a3 3 0 0 1 6 0v124a3 3 0 0 1-3 3zM642 502.4h-0.15a3 3 0 0 1-2.84-3.15l6.11-123.81a3 3 0 1 1 6 0.29L645 499.55a3 3 0 0 1-3 2.85zM655.63 502.05a2.19 2.19 0 0 1-0.36 0 3 3 0 0 1-2.62-3.33l14.59-123.1a3 3 0 1 1 6 0.71L658.61 499.4a3 3 0 0 1-2.98 2.65zM669.57 501.41a3.41 3.41 0 0 1-0.55-0.05 3 3 0 0 1-2.4-3.51L689.52 376a3 3 0 0 1 5.9 1.11L672.52 499a3 3 0 0 1-2.95 2.41zM615.48 502.4a3 3 0 0 1-3-2.85l-6.11-123.82a3 3 0 0 1 6-0.29l6.12 123.81a3 3 0 0 1-2.85 3.15zM601.88 502.05a3 3 0 0 1-3-2.65l-14.6-123.1a3 3 0 1 1 6-0.71l14.6 123.1a3 3 0 0 1-2.63 3.33 2.19 2.19 0 0 1-0.37 0.03zM587.94 501.41a3 3 0 0 1-3-2.45l-22.9-121.83A3 3 0 0 1 568 376l22.9 121.83a3 3 0 0 1-2.39 3.51 3.64 3.64 0 0 1-0.57 0.07z" fill="#5ea9ef" /><path d="M546.76 364.78l164 0 0 36-164 0 0-36Z" fill="#5ea9ef" /><path d="M697.29 370.78a7.47 7.47 0 0 1 7.47 7.47v9.06a7.48 7.48 0 0 1-7.47 7.47H560.22a7.47 7.47 0 0 1-7.46-7.47v-9.06a7.46 7.46 0 0 1 7.46-7.47h137.07m0-12H560.22a19.48 19.48 0 0 0-19.46 19.47v9.06a19.49 19.49 0 0 0 19.46 19.47h137.07a19.5 19.5 0 0 0 19.47-19.47v-9.06a19.49 19.49 0 0 0-19.47-19.47z" fill="#5ea9ef" /><path d="M697.29 392.78H560.22a7.47 7.47 0 0 1-7.46-7.47v2a7.47 7.47 0 0 0 7.46 7.47h137.07a7.48 7.48 0 0 0 7.47-7.47v-2a7.48 7.48 0 0 1-7.47 7.47z" fill="#5ea9ef" /><path d="M160.23 451.14l657.05 0 0 24.16-657.05 0 0-24.16Z" fill="#5ea9ef" /><path d="M808.09 457.14a3.19 3.19 0 0 1 3.19 3.19v5.78a3.19 3.19 0 0 1-3.19 3.19H169.42a3.19 3.19 0 0 1-3.19-3.19v-5.78a3.19 3.19 0 0 1 3.19-3.19h638.67m0-12H169.42a15.21 15.21 0 0 0-15.19 15.19v5.78a15.2 15.2 0 0 0 15.19 15.19h638.67a15.2 15.2 0 0 0 15.19-15.19v-5.78a15.21 15.21 0 0 0-15.19-15.19z" fill="#5ea9ef" /><path d="M808.09 467.68H169.42a3.19 3.19 0 0 1-3.19-3.19v1.62a3.19 3.19 0 0 0 3.19 3.19h638.67a3.19 3.19 0 0 0 3.19-3.19v-1.62a3.19 3.19 0 0 1-3.19 3.19z" fill="#5ea9ef" /><path d="M852.22 751.21l-3.51-0.11a9.71 9.71 0 0 1-9-8.43l-45-282.43a6 6 0 0 1 5-6.88l14.21-2.15a6.82 6.82 0 0 1 0.9-0.07 6 6 0 0 1 5.94 5.15L861.43 740a10.15 10.15 0 0 1-2.29 8.11 8.83 8.83 0 0 1-6.65 3.08z" fill="#5ea9ef" /><path d="M814.84 457.14l40.65 283.74c0.33 2.31-1.08 4.34-3 4.34h-0.08l-3.51-0.11a3.74 3.74 0 0 1-3.27-3.37l-45-282.44 14.21-2.15m0-12a12.13 12.13 0 0 0-1.8 0.14l-14.21 2.15a12 12 0 0 0-10.05 13.75l45 282.44a15.7 15.7 0 0 0 14.75 13.48l3.5 0.11h0.46a14.84 14.84 0 0 0 11.19-5.15 16.16 16.16 0 0 0 3.69-12.89l-40.65-283.74a12 12 0 0 0-11.88-10.3z" fill="#5ea9ef" /><path d="M125 751.22a8.83 8.83 0 0 1-6.65-3.08 10.18 10.18 0 0 1-2.29-8.11l40.66-283.74a5.94 5.94 0 0 1 2.36-4 6 6 0 0 1 3.57-1.19 6.82 6.82 0 0 1 0.9 0.07l14.21 2.15a6 6 0 0 1 5 6.88l-45 282.43a9.7 9.7 0 0 1-9 8.43l-3.5 0.11z" fill="#5ea9ef" /><path d="M162.68 457.14l14.21 2.15-45 282.44a3.75 3.75 0 0 1-3.28 3.37l-3.5 0.11H125c-1.92 0-3.33-2-3-4.34l40.66-283.74m0-12a12 12 0 0 0-11.88 10.3l-40.64 283.75a16.16 16.16 0 0 0 3.7 12.89 14.81 14.81 0 0 0 11.16 5.15h0.47l3.5-0.11a15.71 15.71 0 0 0 14.75-13.48l45-282.44a12 12 0 0 0-10.06-13.75l-14.21-2.15a12.1 12.1 0 0 0-1.79-0.14z" fill="#5ea9ef" /><path d="M162.68 457.14l-0.07 0.45 11.28 1.7-45 282.44a3.75 3.75 0 0 1-3.28 3.37h-1.22a2.45 2.45 0 0 0 0.72 0.07l3.5-0.11a3.75 3.75 0 0 0 3.28-3.37l45-282.44zM814.84 457.14l0.06 0.45-11.27 1.7 45 282.44a3.74 3.74 0 0 0 3.27 3.37h1.22a2.41 2.41 0 0 1-0.71 0.07l-3.51-0.11a3.74 3.74 0 0 1-3.27-3.37l-45-282.44z" fill="#5ea9ef" /><path d="M120.5 422.14l736.51 0 0 29.12-736.51 0 0-29.12Z" fill="#5ea9ef" /><path d="M847.82 428.14a3.18 3.18 0 0 1 3.19 3.18v10.75a3.19 3.19 0 0 1-3.19 3.19H129.69a3.19 3.19 0 0 1-3.19-3.19v-10.75a3.18 3.18 0 0 1 3.19-3.18h718.13m0-12H129.69a15.2 15.2 0 0 0-15.19 15.18v10.75a15.2 15.2 0 0 0 15.19 15.19h718.13A15.2 15.2 0 0 0 863 442.07v-10.75a15.2 15.2 0 0 0-15.19-15.18z" fill="#5ea9ef" /><path d="M847.7 443.26H129.81a3.25 3.25 0 0 1-3.31-3.19v2a3.25 3.25 0 0 0 3.31 3.19H847.7a3.25 3.25 0 0 0 3.31-3.19v-2a3.25 3.25 0 0 1-3.31 3.19z" fill="#5ea9ef" /><path d="M198.24 415.23c-4.86 0-47.54-0.35-47.54-12.5a3 3 0 0 1 3-3h89.08a3 3 0 0 1 3 3c0 12.15-42.67 12.5-47.54 12.5z" fill="#5ea9ef" /><path d="M242.78 402.73c0 5.25-19.94 9.5-44.54 9.5s-44.54-4.25-44.54-9.5h89.08m0-6H153.7a6 6 0 0 0-6 6c0 7.88 10.15 11 17.79 12.59 8.81 1.88 20.45 2.91 32.75 2.91s23.94-1 32.75-2.91c7.64-1.63 17.79-4.71 17.79-12.59a6 6 0 0 0-6-6z m0 12z" fill="#5ea9ef" /></svg>