<svg class="svg-icon" style="width: 1em; height: 1em;vertical-align: middle;fill: currentColor;overflow: hidden;" viewBox="0 0 1024 1024" version="1.1" xmlns="http://www.w3.org/2000/svg"><path d="M895.8 955.3h-769c-17.6 0-32-14.4-32-32V89.8c0-17.6 14.4-32 32-32h769c17.6 0 32 14.4 32 32v833.5c0 17.6-14.3 32-32 32z m-761-40h753V97.8h-753v817.5z" fill ='#5ea9ef' /><path d="M406.9 527h-292v-40h276.6V75.8h40v425.1c0 14.4-11.1 26.1-24.6 26.1z"  /><path d="M431.5 937.2h-40V526H114.8v-40h292c13.6 0 24.6 11.7 24.6 26.1v425.1z" fill ='#5ea9ef' /><path d="M679.6 953.8H391.5V59.3h288.2v894.5z m-248.1-40h208.2V99.3H431.5v814.5zM322.7 348c-11 0-20-9-20-20v-48.8c0-11 9-20 20-20s20 9 20 20V328c0 11.1-9 20-20 20z" fill ='#5ea9ef' /><path d="M578.9 550.9c-11 0-20-9-20-20v-48.8c0-11 9-20 20-20s20 9 20 20v48.8c0 11.1-8.9 20-20 20zM738.3 550.9c-11 0-20-9-20-20v-48.8c0-11 9-20 20-20s20 9 20 20v48.8c0 11.1-8.9 20-20 20z" fill ='#5ea9ef' /><path d="M322.7 747.4c-11 0-20-9-20-20v-48.8c0-11 9-20 20-20s20 9 20 20v48.8c0 11-9 20-20 20z" fill ='#5ea9ef' /></svg> 